<?xml version="1.0" encoding="UTF-8"?> <svg xmlns="http://www.w3.org/2000/svg" xmlns:xlink="http://www.w3.org/1999/xlink" width="295px" height="162px" viewBox="0 0 295 162"><!-- Generator: Sketch 60 (88103) - https://sketch.com --><title>awork-logo-white</title><desc>Created with Sketch.</desc><defs><rect id="path-1" x="0" y="0" width="255" height="122" rx="10"></rect><filter x="-12.0%" y="-24.2%" width="123.9%" height="150.0%" id="filter-2"><feOffset dx="0" dy="1" in="SourceAlpha" result="shadowOffsetOuter1"></feOffset><feGaussianBlur stdDeviation="10" in="shadowOffsetOuter1" result="shadowBlurOuter1"></feGaussianBlur><feColorMatrix values="0 0 0 0 0.184313725 0 0 0 0 0.290196078 0 0 0 0 0.443137255 0 0 0 0.1 0" type="matrix" in="shadowBlurOuter1" result="shadowMatrixOuter1"></feColorMatrix><feOffset dx="0" dy="1" in="SourceAlpha" result="shadowOffsetOuter2"></feOffset><feGaussianBlur stdDeviation="3" in="shadowOffsetOuter2" result="shadowBlurOuter2"></feGaussianBlur><feColorMatrix values="0 0 0 0 0.184313725 0 0 0 0 0.290196078 0 0 0 0 0.443137255 0 0 0 0.15 0" type="matrix" in="shadowBlurOuter2" result="shadowMatrixOuter2"></feColorMatrix><feMerge><feMergeNode in="shadowMatrixOuter1"></feMergeNode><feMergeNode in="shadowMatrixOuter2"></feMergeNode></feMerge></filter></defs><g id="awork-design-ease" stroke="none" stroke-width="1" fill="none" fill-rule="evenodd"><g id="awork-ease-//-design-guide" transform="translate(-810.000000, -792.000000)"><g id="awork-logo-white" transform="translate(830.000000, 811.000000)"><g><g id="Rectangle" fill-rule="nonzero"><use fill="black" fill-opacity="1" filter="url(#filter-2)" xlink:href="#path-1"></use><use fill="#2F4A71" xlink:href="#path-1"></use></g><g id="Group" transform="translate(30.000000, 30.000000)" fill="#FFFFFF"><g id="Logo/awork-white" transform="translate(0.740598, 0.768076)"><path d="M102.227179,50.5667774 C102.536283,50.357407 102.923811,50.3313885 103.253916,50.4976276 L103.253916,50.4976276 L109.795628,53.7715948 L116.337176,50.4976276 C116.668101,50.3313885 117.055629,50.357407 117.363585,50.5667774 C117.672196,50.7747509 117.85989,51.1374385 117.85989,51.5254462 L117.85989,51.5254462 L117.85989,59.8281459 C117.85989,60.2185983 117.672196,60.5805874 117.363585,60.7885609 C117.190001,60.9039853 116.990987,60.9645787 116.791152,60.9645787 C116.6366,60.9645787 116.482048,60.9287815 116.337176,60.8559645 L116.337176,60.8559645 L109.795628,57.5839182 L103.253916,60.8559645 C103.109372,60.9287815 102.954492,60.9645787 102.800104,60.9645787 C102.600762,60.9645787 102.401583,60.9039853 102.227179,60.7885609 C101.919224,60.5805874 101.731694,60.2185983 101.731694,59.8281459 L101.731694,59.8281459 L101.731694,51.5254462 C101.731694,51.1374385 101.919224,50.7747509 102.227179,50.5667774 Z M110.106206,0 C112.32564,0 114.123392,1.81156592 114.123392,4.04874383 C114.123392,5.80135499 113.010254,7.28056778 111.461919,7.84253418 L111.461919,7.84253418 L111.461919,13.2067276 L120.088528,13.2067276 C128.450153,13.2067276 135.228716,20.0378946 135.228716,28.4635982 L135.228716,28.4635982 L135.228716,32.6445593 C135.228716,41.0711248 128.450153,47.9007404 120.088528,47.9007404 L120.088528,47.9007404 L100.122858,47.9007404 C91.7619178,47.9007404 84.9831836,41.0711248 84.9831836,32.6445593 L84.9831836,32.6445593 L84.9831836,28.4635982 C84.9831836,20.0378946 91.7619178,13.2067276 100.122858,13.2067276 L100.122858,13.2067276 L108.749809,13.2067276 L108.749809,7.84253418 C107.201303,7.28022302 106.087652,5.80118261 106.087652,4.04874383 C106.087652,1.81156592 107.88643,0 110.106206,0 Z M15.197025,14.3085105 C19.1000778,14.3085105 22.825482,16.1624849 24.4813481,19.0939596 L24.7175399,15.0266172 L31.6360757,15.0266172 L31.6360757,44.515105 L24.835804,44.515105 L24.4813481,40.2088475 C22.825482,43.6777109 18.2718924,45.3523288 15.0198811,45.4118874 C6.38626308,45.4722969 0,40.0888794 0,29.7411668 C0,19.5721301 6.68200753,14.2487817 15.197025,14.3085105 Z M43.4957462,14.9301009 L50.2569155,37.2645817 L56.6592503,14.9301009 L63.0617553,14.9301009 L69.5238391,37.2645817 L76.2853488,14.9301009 L84.3628684,14.9301009 L74.0714016,44.7903028 L65.5749581,44.7903028 L62.522993,36.0004757 L59.8902922,26.0672843 L57.2574211,36.0004757 L54.2061369,44.7903028 L45.7095232,44.7903028 L35.3579669,14.9301009 L43.4957462,14.9301009 Z M155.629889,14.3080134 C158.64721,14.3080134 161.545891,15.512998 163.1429,17.1395816 L159.889309,23.5249204 C158.410267,22.2597808 157.049528,21.5973906 154.683969,21.5973906 C150.898266,21.5973906 147.408069,23.6455731 147.408069,29.1273877 L147.408069,44.7903028 L140.191237,44.7903028 L140.191237,15.0913991 L146.875284,15.0913991 L147.408069,18.5250311 C149.655493,14.8497509 152.672814,14.3080134 155.629889,14.3080134 Z M172.99553,2.48835015 L172.99553,26.577872 L183.024566,14.7722099 L191.846899,14.7722099 L191.846899,15.1895089 L179.702525,28.6058437 L193.538345,43.6313243 L193.538345,44.1682152 L184.65688,44.1682152 L172.99553,30.8713026 L172.99553,44.1682152 L165.624161,44.1682152 L165.624161,2.48835015 L172.99553,2.48835015 Z M120.927958,20.5979648 L99.2835995,20.5979648 C95.0755018,20.5979648 91.6527765,24.0468181 91.6527765,28.2879406 L91.6527765,28.2879406 L91.6527765,32.8202169 C91.6527765,37.0603051 95.0755018,40.5101927 99.2835995,40.5101927 L99.2835995,40.5101927 L120.927958,40.5101927 C125.136569,40.5101927 128.559294,37.0603051 128.559294,32.8202169 L128.559294,32.8202169 L128.559294,28.2879406 C128.559294,24.0468181 125.136569,20.5979648 120.927958,20.5979648 L120.927958,20.5979648 Z M15.8475618,20.8281361 C11.0579486,20.8281361 7.214112,24.1183238 7.214112,29.7411668 C7.214112,35.3636696 11.0579486,38.7129054 15.8475618,38.7129054 C27.2012549,38.7129054 27.2012549,20.8281361 15.8475618,20.8281361 Z M101.42091,26.7497641 C103.305308,26.7497641 104.83327,28.2828693 104.83327,30.1723227 C104.83327,32.0615966 103.305308,33.5927271 101.42091,33.5927271 C99.5363334,33.5927271 98.009803,32.0615966 98.009803,30.1723227 C98.009803,28.2828693 99.5363334,26.7497641 101.42091,26.7497641 Z M118.791168,26.7497641 C120.67485,26.7497641 122.202096,28.2828693 122.202096,30.1723227 C122.202096,32.0615966 120.67485,33.5927271 118.791168,33.5927271 C116.906591,33.5927271 115.378629,32.0615966 115.378629,30.1723227 C115.378629,28.2828693 116.906591,26.7497641 118.791168,26.7497641 Z" id="awork-white"></path></g></g></g></g></g></g></svg> 